<svg width="48" height="48" viewBox="0 0 48 48" fill="none" xmlns="http://www.w3.org/2000/svg">
<path d="M15.978 6.999C15.7163 7.2669 15.5698 7.62652 15.5698 8.001C15.5698 8.37549 15.7163 8.73511 15.978 9.003L30.597 24L15.978 38.994C15.7163 39.2619 15.5698 39.6215 15.5698 39.996C15.5698 40.3705 15.7163 40.7301 15.978 40.998C16.1052 41.1286 16.2572 41.2325 16.4252 41.3034C16.5932 41.3743 16.7737 41.4108 16.956 41.4108C17.1383 41.4108 17.3188 41.3743 17.4868 41.3034C17.6547 41.2325 17.8068 41.1286 17.934 40.998L33.48 25.047C33.753 24.7669 33.9058 24.3912 33.9058 24C33.9058 23.6088 33.753 23.2331 33.48 22.953L17.934 7.002C17.8068 6.87137 17.6547 6.76755 17.4868 6.69665C17.3188 6.62576 17.1383 6.58923 16.956 6.58923C16.7737 6.58923 16.5932 6.62576 16.4252 6.69665C16.2572 6.76755 16.1052 6.87137 15.978 7.002V6.999Z" fill="white"/>
</svg>
