<svg width="48" height="48" viewBox="0 0 48 48" fill="none" xmlns="http://www.w3.org/2000/svg">
<path d="M28.566 7.002L13.02 22.95C12.747 23.2301 12.5941 23.6058 12.5941 23.997C12.5941 24.3882 12.747 24.7639 13.02 25.044L28.566 40.998C28.6932 41.1286 28.8453 41.2325 29.0132 41.3034C29.1812 41.3742 29.3617 41.4108 29.544 41.4108C29.7263 41.4108 29.9068 41.3742 30.0748 41.3034C30.2427 41.2325 30.3948 41.1286 30.522 40.998C30.7837 40.7301 30.9302 40.3705 30.9302 39.996C30.9302 39.6215 30.7837 39.2619 30.522 38.994L15.903 23.997L30.522 9.003C30.7828 8.73525 30.9287 8.37626 30.9287 8.0025C30.9287 7.62875 30.7828 7.26976 30.522 7.002C30.3948 6.87137 30.2427 6.76755 30.0748 6.69665C29.9068 6.62576 29.7263 6.58923 29.544 6.58923C29.3617 6.58923 29.1812 6.62576 29.0132 6.69665C28.8453 6.76755 28.6932 6.87137 28.566 7.002V7.002Z" fill="white"/>
</svg>
