<svg width="48" height="48" viewBox="0 0 48 48" fill="none" xmlns="http://www.w3.org/2000/svg">
<path d="M42.2856 26.2857V33.1428C42.2856 36.1143 35.1222 40 26.2856 40C17.4491 40 10.2856 36.1143 10.2856 33.1428V27.4286" stroke="black" stroke-linecap="round" stroke-linejoin="round"/>
<path d="M10.9575 28.0206C12.9347 30.6446 19.0489 33.1063 26.2855 33.1063C35.1221 33.1063 42.2855 29.4354 42.2855 26.2811C42.2855 24.5097 40.0295 22.5691 36.4889 21.2068" stroke="black" stroke-linecap="round" stroke-linejoin="round"/>
<path d="M35.4285 14.8571V21.7143C35.4285 24.6857 28.265 28.5714 19.4285 28.5714C10.5919 28.5714 3.42847 24.6857 3.42847 21.7143V14.8571" stroke="black" stroke-linecap="round" stroke-linejoin="round"/>
<path fill-rule="evenodd" clip-rule="evenodd" d="M19.4285 21.6777C28.265 21.6777 35.4285 18.0069 35.4285 14.8526C35.4285 11.696 28.265 8 19.4285 8C10.5919 8 3.42847 11.696 3.42847 14.8526C3.42847 18.0069 10.5919 21.6777 19.4285 21.6777Z" stroke="black" stroke-linecap="round" stroke-linejoin="round"/>
</svg>
