<svg id="Logo" xmlns="http://www.w3.org/2000/svg" viewBox="0 0 512 512"><defs><style>.cls-1{fill:#00aeef;}.cls-2{fill:#1ca54a;}.cls-3{fill:#f7d030;}</style></defs><circle class="cls-1" cx="256" cy="256" r="256"/><path class="cls-2" d="M485.8,316.76c-16.78,5.68-24.31,20.41-32.52,36.47-6.76,13.21-10.6,20.72-8.38,29.57,2.3,9.2,10.42,17,19.92,21.32a254.76,254.76,0,0,0,40.54-90C495.91,313.47,486.39,316.56,485.8,316.76Z"/><path class="cls-2" d="M437.51,277.83c-7.18,8.71,5.66,38.55,19.71,38.93,9,.25,15.89-11.73,24.15-26.12,1.48-2.58,13.34-23.48,8.87-27.1-3-2.43-9.35,6.12-24.64,10.35C449.35,278.37,441.62,272.84,437.51,277.83Z"/><path class="cls-2" d="M.7,237c5.61,2.68,14.79,8.13,21.12,18.46,3.86,6.3,5.16,12,6.75,19.2,4.6,20.87-.71,26.45,4.77,36.43,4.83,8.79,10.6,7.45,21.11,17,4.21,3.84,10.54,10.67,20.33,34C90,398.39,84,404.51,95,421.73c14.63,23,39.12,35.26,42.38,32,3.64-3.59-20.55-22-30.06-55.69-12.69-44.92,16.4-61.52,5.69-95.46-15.76-49.92-91.91-56-89.47-85.9.31-3.81,1.65-4.63,29.07-32.53,37.38-38,41.82-43.13,46.33-52.73,9.5-20.22,1.64-22.66,12.81-43.86,10.2-19.35,25-37.51,28.1-40.42C145.52,41.77,151.68,37,150.45,34c-1.4-3.39-11.42-2.51-20-1.15A256,256,0,0,0,.7,237Z"/><path class="cls-2" d="M445.88,263c4.36-.28,2.19-22.88,16.27-32,5.8-3.77,9.83-2.23,13.3-3.94,12.43-6.12,16.25-52.65.13-102.73A256.18,256.18,0,0,0,298.72,3.57C307,8.93,316.49,15,323.62,20.75,332,27.58,334.73,32.62,334,36.34,331,52,263.76,42.7,253.26,69.09c-3,7.45-.87,16.41-7.49,20.42s-13.69-2.19-19.2,1.54c-6.91,4.68,0,17-3.45,31-5.89,24.14-39.65,26.39-38.93,41.89.4,8.56,11.1,17.24,19.71,16.76,12.57-.7,15-20.58,27.11-21.68s27.19,17.61,23.66,25.13c-4.81,10.22-39.29-9.6-67,8.38-19.19,12.43-22.73,34.91-23.16,38-3.94,27.74,14.54,57.72,29.57,57.66,10.6-.05,13.9-15,21.19-14.29,18.89,1.92,5.87,103.59,35,114.83,33.56,12.94,113.56-97.91,96.1-120.75-5.29-6.93-17.94-3.64-32-17.25C303.4,240.2,298.69,226.37,301,224.6c3.88-3,25,30.38,42.38,25.63,13.94-3.8,14-28.94,23.66-29.57,13.71-.89,22.71,49,36.47,48.3,12.09-.57,17.29-39.65,26.12-38.94C437.63,230.67,440.64,263.39,445.88,263Z"/><path class="cls-2" d="M189.77,8.67C182.23,17.3,172,28.54,156.59,43.24A128.46,128.46,0,0,0,128.5,83.16c-2.38,5.36-6.14,14-3.45,16.26,2.91,2.43,12.23-3.61,27.6-15.77C176.55,64.75,191,50.12,201,40.78,224.11,19,242.42,7.66,252.68,0A256.27,256.27,0,0,0,189.77,8.67Z"/><circle class="cls-1" cx="201.74" cy="171.85" r="122.04"/><path class="cls-2" d="M292.05,135.89c7.78-5.9,12.5-3.29,17.88-7.4,3.08-2.36,5.11-6,6.31-10.25a126.79,126.79,0,0,0-74.42-66.31c1.34,13.07,10.62,32.45,1,41.07-3.24,2.89-11.14,3.07-26.81,3.32-19.12.3-35.49-1.28-35.49-1.28-17.37-1.67-22-3.53-31.4-1.27-6.76,1.61-13.43,3.21-17.73,8.49-9.91,12.18,6.83,26.71,3.43,55.34-2.5,21-13.88,33.11-6.65,42.88,3.79,5.11,9.29,5,11.24,11,2.91,8.87-6.86,16.35-4.08,20.42,3.71,5.45,21.43-7.65,35-.51,10.75,5.67,8.91,18.84,17.61,20.68,8.06,1.72,10.39-9.41,25.28-14.29,16-5.23,27,3,34.21-4.86,3.41-3.71,2-6.71,7.15-11.74s8.52-3.84,11.75-8.43c3.72-5.29.48-8.64,4.34-14.29,3.64-5.35,8.1-4.64,8.93-8.43,1-4.59-5.34-6.6-7.15-13.53-1.28-4.92,1.34-10.32,6.64-20.94S286.89,139.81,292.05,135.89Z"/><path class="cls-2" d="M235.54,263.21c-11.47,1.16-21.4,9.64-29.27,4.43-5.4-3.58-5.81-10.93-11.58-11.92-3.92-.67-7.42,2.11-8.72,3.15-9.75,7.74-4.94,20.18-11.36,31.92a26.58,26.58,0,0,1-2.72,4,126.73,126.73,0,0,0,99-17C262,269.21,247.91,262,235.54,263.21Z"/><circle class="cls-3" cx="221" cy="159.91" r="12.5"/><path class="cls-3" d="M308.59,98.11a130,130,0,1,0-32.37,181A130,130,0,0,0,308.59,98.11Zm-201,140a115,115,0,1,1,160.09,28.64A115,115,0,0,1,107.56,238.14Z"/><rect class="cls-3" x="249.82" y="378.69" width="225" height="48" rx="15" transform="matrix(0.57, 0.82, -0.82, 0.57, 485.66, -124.78)"/><rect class="cls-3" x="251.72" y="296.21" width="89.58" height="24" transform="translate(379.93 -111.26) rotate(55.14)"/></svg>