<svg width="38" height="48" viewBox="0 0 38 48" fill="none" xmlns="http://www.w3.org/2000/svg">
<g clip-path="url(#clip0_123_297)">
<path d="M20.599 33C29.3998 33 36.559 25.935 36.559 17.25C36.559 8.565 29.3998 1.5 20.599 1.5C11.7982 1.5 4.63904 8.565 4.63904 17.25C4.63904 25.935 11.7982 33 20.599 33ZM20.599 3C28.5608 3 35.039 9.393 35.039 17.25C35.039 25.107 28.5608 31.5 20.599 31.5C12.6373 31.5 6.15904 25.107 6.15904 17.25C6.15904 9.393 12.6358 3 20.599 3ZM13.759 42C12.0247 42 10.719 43.2885 10.719 45V47.25C10.719 47.4489 10.7991 47.6397 10.9416 47.7803C11.0842 47.921 11.2775 48 11.479 48H29.719C29.9206 48 30.1139 47.921 30.2564 47.7803C30.399 47.6397 30.479 47.4489 30.479 47.25V45.1125C30.479 43.3665 29.143 42 27.439 42H13.759ZM28.959 45.1125V46.5H12.239V45C12.239 44.1165 12.8638 43.5 13.759 43.5H27.439C28.3054 43.5 28.959 44.193 28.959 45.1125Z" fill="white"/>
<path d="M19.8436 37.467C19.8436 37.476 19.839 37.482 19.839 37.491V39.897C19.839 40.0959 19.9191 40.2867 20.0616 40.4273C20.2042 40.568 20.3975 40.647 20.599 40.647C20.8006 40.647 20.9939 40.568 21.1364 40.4273C21.279 40.2867 21.359 40.0959 21.359 39.897V37.491C21.359 37.4805 21.353 37.4715 21.353 37.461C26.2416 37.2863 30.9028 35.3794 34.4827 32.0895L36.2763 33.858C36.4197 33.9946 36.6116 34.0702 36.8109 34.0685C37.0102 34.0668 37.2008 33.9879 37.3417 33.8489C37.4826 33.7098 37.5625 33.5217 37.5643 33.325C37.566 33.1284 37.4894 32.9389 37.351 32.7975L35.0314 30.5085C34.8889 30.3679 34.6956 30.2889 34.4941 30.2889C34.2926 30.2889 34.0993 30.3679 33.9568 30.5085C30.3666 34.05 25.5953 36 20.52 36C15.4447 36 10.6734 34.05 7.08472 30.5085C3.496 26.967 1.52 22.2585 1.52 17.25C1.52 12.2415 3.496 7.53299 7.08472 3.99149C7.2272 3.85085 7.30724 3.66011 7.30724 3.46124C7.30724 3.26237 7.2272 3.07164 7.08472 2.93099L4.7652 0.641991C4.62186 0.505373 4.42989 0.429777 4.23062 0.431486C4.03135 0.433195 3.84073 0.512071 3.69982 0.651127C3.55891 0.790184 3.47898 0.978293 3.47725 1.17494C3.47552 1.37159 3.55212 1.56104 3.69056 1.70249L5.48264 3.47249C1.94506 7.20915 -0.0156576 12.1363 1.52367e-06 17.25C1.52367e-06 22.6575 2.13408 27.744 6.01008 31.569C9.68716 35.2086 14.6378 37.3193 19.8436 37.467Z" fill="white"/>
</g>
<defs>
<clipPath id="clip0_123_297">
<rect width="38" height="48" fill="white"/>
</clipPath>
</defs>
</svg>
