<svg id="Layer_1" data-name="Layer 1" xmlns="http://www.w3.org/2000/svg" viewBox="0 0 1569.23 512.09"><defs><style>.cls-1{font-size:142px;font-family:Ebrima;letter-spacing:-0.04em;}.cls-1,.cls-2{fill:#fff;}.cls-3{fill:#2ad346;}</style></defs><title>logo</title><text class="cls-1" transform="translate(530.67 299.96)">Explore the World</text><path class="cls-2" d="M91,104.05A100.81,100.81,0,0,1,259.34,29.19c1.44-.56,2.87-1.12,4.32-1.66A105,105,0,0,0,115.3,175.9c.53-1.45,1.1-2.89,1.65-4.32A100.47,100.47,0,0,1,91,104.05Z" transform="translate(-87.49 0.28)"/><path class="cls-2" d="M497,92a16.32,16.32,0,0,0-5-4c.52,2.27,1.05,4.54,1.57,6.81l0,0a262.51,262.51,0,0,1,6,56c0,144.19-116.89,261.07-261.08,261.07a261.87,261.87,0,0,1-56-6l-3.3-.75q-2.19-.52-4.29-1.08a16.32,16.32,0,0,0,4,5c5.24,1.16,12.11,2.51,20.23,3.67a311.46,311.46,0,0,0,37.9,2.69c146.91,0,266-119.09,266-266a312.44,312.44,0,0,0-2.69-37.88C499.34,103.64,498.07,97,497,92Z" transform="translate(-87.49 0.28)"/><path class="cls-3" d="M497,92.35a224.65,224.65,0,0,0-347.51,67.5,21.59,21.59,0,0,0,10.6-2.54c5.79-3.29,10.29-10.4,16-9,3.78.92,5.2,4.84,8,10,2.35,4.31,14,25.75,30,29,6.81,1.38,14.34-.28,15-3,.79-3.19-8.33-5.93-20-17-5.62-5.34-15.4-14.62-13-22,.68-2.08,2.57-4.73,5-5,5.23-.57,6.16,10.58,17,19,7.74,6,13.21,4.93,16,11,2,4.26-.39,5.52,1,12,1,4.57,4.34,9.11,11,18,7.08,9.44,8.61,10.1,10,10,3.88-.27,7.42-6.46,8-12,.8-7.49-4.11-10.88-2-15,1.84-3.59,8.06-5.91,12-4,6.4,3.09,1.49,14.71,10,24,4,4.41,10.8,8,15,6,3.42-1.59,2.62-5.65,6-7,4.91-2,9.18,5.55,15,4,4.75-1.26,5.33-7.15,9-7,3.39.13,5.66,5.24,6,6,1.53,3.43.94,5.68-1,18-1.45,9.24-1.67,11.53-4,14a15.11,15.11,0,0,1-7,4c-6.4,1.83-8.43-1.64-14,0-4.8,1.41-4.71,4.41-10,6-1.77.53-3.58.74-10,0-9.59-1.11-14.47-1.67-21-4-8.11-2.9-8.18-4.76-13-5-6.53-.33-14.07,2.7-15,7-.6,2.82,2,4.35,1,7s-4.95,4.06-8,4c-3.45-.07-3.8-1.91-9-4-6.42-2.59-9.06-1.05-12-4-2.29-2.31-1.06-3.64-3-6-3.73-4.56-9.83-1.5-20-5-2.5-.86-10.73-3.7-11-8-.22-3.63,5.38-5.4,5-10-.22-2.71-2.27-3.33-2-6,.33-3.16,3.39-4.22,3-6s-4.17-2.6-7-3c-8.28-1.16-12.44,0-18,0-7.94-.05-7-2.55-18-4-2.59-.34-5-.52-7.33-.59a225.09,225.09,0,0,0,25.2,180.87c5.5.46,13.59,1.64,14.13,4.72.43,2.39-3.91,4.56-6.38,6.87q2.31,3.24,4.74,6.41c4.53,1,11,1.91,17.64,4.72a48.45,48.45,0,0,1,14.92,10A266.46,266.46,0,0,0,340.57,394.5a42.81,42.81,0,0,1,3.5-7.19c12.71-21.12,29.7-24.51,47-38,24.51-19.11,33.49-45.87,32-47s-20.39,15.9-31,26c-2,1.87-7.73,7.4-10,6s2.11-8.48-1-13c-3.66-5.34-13.2-.37-21-5-8.2-4.88-1.73-19-10-24-2.46-1.5-5.54-1.93-7-5-1.18-2.5,0-3.92-1-7-1-2.88-2.4-2.75-6-7-3.81-4.51-3.08-5.7-7-10-2.09-2.3-3.36-2.59-5-5-2-2.92-2.9-6.18-2.3-6.54.89-.55,4,6.24,10,7,2.32.29,2.38-.66,4.3-.46,7.08.72,7.06,14,17,18,2.18.87,3.18.66,5,2,4.31,3.16,2.45,7.05,6,12,3.41,4.75,6.58,3.2,13,10a37.9,37.9,0,0,1,4,5c5.21,7.86,3.66,12.52,6,14,7.47,4.72,38.5-32.75,42-37a184.23,184.23,0,0,0,21-32c7.9-15.23,9.36-23.25,7-25-1.95-1.45-5.69,2-9,0s-2.35-7.62-4-8c-3.46-.79-8.6,23.64-17,24-1.06,0-1.73-.31-10-8-9.85-9.16-11.1-10.69-11-13,.19-4.15,4.65-8.41,8-8s3.14,5.42,8,8c4.3,2.28,10.18,1.38,14-1,4.92-3.06,6.32-8.5,8-8,1.38.41.36,4,2,5,2.9,1.75,11.53-6.13,18-14,7.88-9.58,8.09-13.7,11-14,7.14-.73,12.13,23.31,17.79,34.46A267.42,267.42,0,0,0,497,92.35Z" transform="translate(-87.49 0.28)"/><path class="cls-3" d="M165.07,59.31c.71,0-.32-5.6,3-9,2.44-2.5,6.35-2.93,7-3,3.51-.38,5.33.89,6,0,.88-1.16-.94-4.94-4-7-4.88-3.3-11.94-1.52-14-1-4.36,1.1-6.36,2.86-10,2-2.17-.52-3.19-1.56-4-1-1.42,1-.54,5.77,2,9,2.42,3.07,6.81,5.33,9,4,1.46-.89,1.36-3,2-3C163.41,50.32,164.17,59.34,165.07,59.31Z" transform="translate(-87.49 0.28)"/><path class="cls-3" d="M138.07,34.31c1.83-.64,2,.19,6,0,3.58-.17,3.61-.83,7-1,4.32-.22,4.91.82,7,0,2.24-.87,1.78-2.14,5-5,2.23-2,4.56-4.27,8-5,4-.85,5-1,5-1,1.65-.25,2.77-.34,3-1s-.68-1.68-1-2c-1.26-1.3-2.39-1-3-2s.25-1.78,0-3c-.51-2.57-5.34-4.09-9-4-1.56,0-4.39.11-6,2-.79.94-.8,1.76-2,3a8.83,8.83,0,0,1-3,2c-4.14,1.88-4.46,3.67-9,6-4.78,2.46-5.17.86-8,3s-2.2,3.51-6,7c-2.45,2.26-4.25,3.1-4,4s2.29,1.33,4,1C134.94,37.76,135.1,35.36,138.07,34.31Z" transform="translate(-87.49 0.28)"/><path class="cls-3" d="M152.07,75.31a6.42,6.42,0,0,0,1-2c.2-.67.41-1.48,0-2-.56-.73-2.12-.65-3,0-.52.39-.47.75-1,1-.83.39-1.4-.28-2,0-.89.42-.13,2.21-1,4-1,2-3.14,2.19-3,3s2.4,1.14,4,1a4.87,4.87,0,0,0,3-1C151.15,78.37,150.49,77.6,152.07,75.31Z" transform="translate(-87.49 0.28)"/><path class="cls-3" d="M155.07,86.31c3.36.35,4,.46,5,0a5.21,5.21,0,0,0,3-5c-.18-1.23-1-1.29-2-3a10.08,10.08,0,0,1-1-7c.67-2.81,2.34-3.29,2-5a4.07,4.07,0,0,0-4-3c-2.41.26-4.09,4-4,7,.12,3.53,2.76,6.36,2,7-.42.36-1.3-.47-2,0s-.07,2-1,3c-.75.8-1.9.52-2,1-.13.66,2.05,1.24,2,2-.06,1.13-5,1.42-5,2C148.08,85.67,150,85.78,155.07,86.31Z" transform="translate(-87.49 0.28)"/><path class="cls-3" d="M178.07,75.31c-.46-2.88,2.65-5.34,2-6s-3.83.53-5,3c-1.51,3.18,1.5,6.4,0,8-1.25,1.34-3.66-.6-6,1-1.82,1.25-1.14,3-3,4-2,1.12-4.35-.11-5,1-.41.7.41,1.36,0,2-.79,1.26-4.35-.63-6,1-.72.72-.28,1.34-1,2-1.71,1.58-5.69-.6-6,0s2.5,1.64,4,4c2.25,3.53,1.63,9.61-1,11-3.71,2-10.3-6-13-4-1.32,1-.19,3.29-2,7a13.37,13.37,0,0,1-3,4,8.93,8.93,0,0,0,0,5c.91,3,4.44,5.22,8,6.55a251.2,251.2,0,0,1,39.48-46.47A4.5,4.5,0,0,1,178.07,75.31Z" transform="translate(-87.49 0.28)"/><path class="cls-3" d="M216.07,45.31c.66-1,.07-2.89-1-4s-2.51-1.1-9-2c-2-.28-4-.59-4-1s2-.57,2-1-2.42-1.25-5-1c-2.18.21-2.42,1-7,3-3.08,1.37-5,1.92-5,3,0,.75.9,1,1,2s-.93,2-2,3c-4.41,4.08-3.78,4.8-7,7-1.68,1.15-2,1-3,2a10.09,10.09,0,0,0-3,5,7.55,7.55,0,0,0,0,4c.26.87.82,2.71,2,3,2.17.53,4.45-4.58,6-4,.49.18.66,1.12,1,3,.47,2.54.77,4.22,0,6-.53,1.23-1.14,1.49-1,2s.9.78,1.85.94a251.35,251.35,0,0,1,31.62-24.18c-1.58-2.82-5.09-4.65-4.47-5.76S215,47,216.07,45.31Z" transform="translate(-87.49 0.28)"/><path class="cls-3" d="M243.76,13.08c-2.39-.12-4.16.31-4.69,1.23-.67,1.16.92,2.61,0,4-1.37,2.08-5.85.2-7,2-1.25,2,2.86,6.11,2,7-1,1-7.38-3.72-8-3-.36.43,2.37,2.4,3,6,.09.51.64,3.62-1,5-1.29,1.1-2.62,0-4,1-2,1.43-.6,5.38-2,6s-4.68-3.28-5-3,2.67,2.89,2,5c-.5,1.61-2.7,1.61-3,3-.2.93.55,2,1.46,2.88a249.06,249.06,0,0,1,46.13-22.66A105.62,105.62,0,0,0,243.76,13.08Z" transform="translate(-87.49 0.28)"/><path class="cls-2" d="M349.57,11.81c-138.07,0-250,111.93-250,250s111.93,250,250,250,250-111.93,250-250S487.64,11.81,349.57,11.81Zm0,474.61c-124,0-224.61-100.56-224.61-224.61S225.53,37.2,349.57,37.2,574.18,137.76,574.18,261.81,473.62,486.42,349.57,486.42Z" transform="translate(-87.49 0.28)"/><path class="cls-2" d="M1092,157.26c-117.2,10.35-275.45,9.71-454-35a1348.63,1348.63,0,0,1-195-65v-27a1348.63,1348.63,0,0,0,195,65c178.55,44.71,336.8,45.35,454,35Z" transform="translate(-87.49 0.28)"/><path class="cls-2" d="M1092,366.74c-117.2-10.35-275.45-9.71-454,35a1348.63,1348.63,0,0,0-195,65v27a1348.63,1348.63,0,0,1,195-65c178.55-44.71,336.8-45.35,454-35Z" transform="translate(-87.49 0.28)"/></svg>