<svg width="50" height="50" viewBox="0 0 50 50" fill="none" xmlns="http://www.w3.org/2000/svg">
<path d="M9.4375 12.5H40.5625M43.2813 12.5H40.5625V10.7292C40.5574 10.1909 40.3441 9.67552 39.9674 9.29103C39.5906 8.90654 39.0797 8.68279 38.5417 8.66666H11.4583C10.9238 8.67987 10.4148 8.89811 10.0366 9.27622C9.65853 9.65433 9.44029 10.1634 9.42708 10.6979V12.5H6.71875C6.18941 12.5128 5.68481 12.7267 5.30752 13.0982C4.93022 13.4697 4.70852 13.9709 4.6875 14.5V38.2604C4.6875 38.813 4.90699 39.3429 5.29769 39.7336C5.68839 40.1243 6.2183 40.3437 6.77083 40.3437H43.3333C43.8859 40.3437 44.4158 40.1243 44.8065 39.7336C45.1972 39.3429 45.4167 38.813 45.4167 38.2604V14.5C45.3949 13.9529 45.1587 13.4364 44.7591 13.0621C44.3595 12.6878 43.8286 12.4859 43.2813 12.5V12.5ZM36.6146 23.5C36.6014 24.0346 36.3831 24.5436 36.005 24.9217C35.6269 25.2998 35.1179 25.518 34.5833 25.5312H15.4167C14.873 25.5314 14.3509 25.3191 13.9616 24.9396C13.5724 24.5601 13.3469 24.0435 13.3333 23.5V20.8333C13.3469 20.2899 13.5724 19.7733 13.9616 19.3937C14.3509 19.0142 14.873 18.8019 15.4167 18.8021H34.5833C35.1179 18.8153 35.6269 19.0335 36.005 19.4116C36.3831 19.7897 36.6014 20.2988 36.6146 20.8333V23.5Z" stroke="black" stroke-miterlimit="10"/>
</svg>
