<svg width="32" height="32" viewBox="0 0 32 32" fill="none" xmlns="http://www.w3.org/2000/svg">
<path d="M13.3335 5.33334H18.6668V10.6667H13.3335V5.33334ZM5.3335 21.3333H10.6668V26.6667H5.3335V21.3333ZM5.3335 13.3333H10.6668V18.6667H5.3335V13.3333ZM5.3335 5.33334H10.6668V10.6667H5.3335V5.33334ZM18.6668 16.56V13.3333H13.3335V18.6667H16.5602L18.6668 16.56ZM27.8402 15.0533L26.2802 13.4933C26.2294 13.4425 26.1691 13.4022 26.1028 13.3748C26.0364 13.3473 25.9653 13.3331 25.8935 13.3331C25.8217 13.3331 25.7506 13.3473 25.6842 13.3748C25.6179 13.4022 25.5576 13.4425 25.5068 13.4933L24.3335 14.6667L26.6668 17L27.8402 15.8267C27.891 15.7759 27.9313 15.7156 27.9587 15.6493C27.9862 15.5829 28.0004 15.5118 28.0004 15.44C28.0004 15.3682 27.9862 15.2971 27.9587 15.2307C27.9313 15.1644 27.891 15.1041 27.8402 15.0533ZM14.6668 24.3333V26.6667H17.0002L25.8935 17.7733L23.5602 15.44L14.6668 24.3333ZM21.3335 5.33334H26.6668V10.6667H21.3335V5.33334Z" fill="black"/>
</svg>
