<svg width="48" height="48" viewBox="0 0 48 48" fill="none" xmlns="http://www.w3.org/2000/svg">
<path d="M18.75 19.5C18.75 19.3011 18.829 19.1103 18.9697 18.9697C19.1103 18.829 19.3011 18.75 19.5 18.75H31.5C31.6989 18.75 31.8897 18.829 32.0303 18.9697C32.171 19.1103 32.25 19.3011 32.25 19.5C32.25 19.6989 32.171 19.8897 32.0303 20.0303C31.8897 20.171 31.6989 20.25 31.5 20.25H19.5C19.3011 20.25 19.1103 20.171 18.9697 20.0303C18.829 19.8897 18.75 19.6989 18.75 19.5ZM31.5 26.25C31.6989 26.25 31.8897 26.171 32.0303 26.0303C32.171 25.8897 32.25 25.6989 32.25 25.5C32.25 25.3011 32.171 25.1103 32.0303 24.9697C31.8897 24.829 31.6989 24.75 31.5 24.75H19.5C19.3011 24.75 19.1103 24.829 18.9697 24.9697C18.829 25.1103 18.75 25.3011 18.75 25.5C18.75 25.6989 18.829 25.8897 18.9697 26.0303C19.1103 26.171 19.3011 26.25 19.5 26.25H31.5ZM42.75 36C42.7451 37.3909 42.1904 38.7234 41.2069 39.7069C40.2234 40.6904 38.8909 41.2451 37.5 41.25H16.5C15.1091 41.2451 13.7767 40.6904 12.7932 39.7069C11.8097 38.7234 11.255 37.3909 11.25 36V12C11.25 11.0055 10.8549 10.0516 10.1517 9.34836C9.4484 8.6451 8.49458 8.25001 7.50001 8.25001C6.50545 8.25001 5.55162 8.6451 4.84836 9.34836C4.1451 10.0516 3.75001 11.0055 3.75001 12C3.74656 12.9214 4.08763 13.8109 4.70626 14.4938C4.84053 14.6429 4.91003 14.8394 4.89948 15.0398C4.88894 15.2402 4.7992 15.4282 4.65001 15.5625C4.50083 15.6968 4.30442 15.7663 4.10399 15.7557C3.90356 15.7452 3.71553 15.6554 3.58126 15.5063C2.90329 14.7507 2.45891 13.8148 2.30192 12.8119C2.14494 11.8089 2.2821 10.782 2.69678 9.8554C3.11146 8.92882 3.78588 8.14233 4.63838 7.59117C5.49087 7.04002 6.48487 6.74784 7.50001 6.75001H33C34.3909 6.75495 35.7234 7.30966 36.7069 8.29316C37.6904 9.27666 38.2451 10.6091 38.25 12V32.25H40.8563C41.0685 32.254 41.2707 32.3416 41.4188 32.4938C42.2775 33.4597 42.7513 34.7075 42.75 36ZM20.25 36C20.2535 35.0786 19.9124 34.1891 19.2938 33.5063C19.2003 33.3967 19.1386 33.2636 19.1154 33.1215C19.0923 32.9793 19.1086 32.8336 19.1625 32.7C19.2213 32.5653 19.3184 32.4508 19.4418 32.3708C19.5651 32.2908 19.7092 32.2488 19.8563 32.25H36.75V12C36.7451 11.007 36.3484 10.056 35.6462 9.35381C34.944 8.65161 33.9931 8.25494 33 8.25001H11.175C11.6746 8.73825 12.0714 9.32161 12.3419 9.96567C12.6124 10.6097 12.7512 11.3015 12.75 12V36C12.75 36.9946 13.1451 37.9484 13.8484 38.6517C14.5516 39.3549 15.5055 39.75 16.5 39.75C17.4946 39.75 18.4484 39.3549 19.1517 38.6517C19.8549 37.9484 20.25 36.9946 20.25 36ZM41.25 36C41.2541 35.188 40.9905 34.3972 40.5 33.75H21.2438C21.5808 34.452 21.754 35.2213 21.75 36C21.7512 36.6986 21.6124 37.3903 21.3419 38.0344C21.0714 38.6784 20.6746 39.2618 20.175 39.75H37.5C38.4931 39.7451 39.444 39.3484 40.1462 38.6462C40.8484 37.944 41.2451 36.9931 41.25 36Z" fill="white"/>
</svg>
