<svg width="56" height="56" viewBox="0 0 56 56" fill="none" xmlns="http://www.w3.org/2000/svg">
<path d="M27.9998 13.615L27.452 13.7812L5.57702 21.1102L0.603516 22.75L3.49977 23.6775V38.99C2.45502 39.5972 1.74977 40.705 1.74977 42C1.74977 42.9282 2.11851 43.8185 2.77489 44.4749C3.43127 45.1312 4.32151 45.5 5.24977 45.5C6.17802 45.5 7.06826 45.1312 7.72464 44.4749C8.38102 43.8185 8.74977 42.9282 8.74977 42C8.74977 40.705 8.04452 39.5972 6.99977 38.99V24.885L10.4998 26.0312V35C10.4998 36.435 11.3748 37.625 12.4143 38.4475C13.4538 39.2647 14.7453 39.8422 16.2958 40.3602C19.4003 41.3927 23.4918 42 27.9998 42C32.5078 42 36.5993 41.3945 39.7038 40.3585C41.2543 39.8422 42.5458 39.2647 43.5853 38.4457C44.6248 37.625 45.4998 36.435 45.4998 35V26.0312L50.4225 24.3897L55.396 22.75L50.4208 21.1085L28.5458 13.7812L27.9998 13.615ZM27.9998 17.2812L44.406 22.75L27.9998 28.2187L11.5935 22.75L27.9998 17.2812ZM13.9998 27.2352L27.4538 31.7187L27.9998 31.8832L28.5475 31.717L41.9998 27.2335V35C41.9998 35.0175 42.0068 35.2205 41.452 35.6562C40.899 36.0937 39.9068 36.645 38.6083 37.079C36.0148 37.9417 32.191 38.5 27.9998 38.5C23.8085 38.5 19.9848 37.9435 17.3895 37.0772C16.0945 36.645 15.1005 36.092 14.5475 35.6562C13.991 35.2187 13.9998 35.0175 13.9998 35V27.2335V27.2352Z" fill="black"/>
</svg>
