<svg width="42" height="34" viewBox="0 0 42 34" fill="none" xmlns="http://www.w3.org/2000/svg">
<g clip-path="url(#clip0_96_740)">
<path d="M13.6496 23.375C13.4928 23.375 13.3359 23.3982 13.1863 23.4474C12.3358 23.727 11.4413 23.9062 10.4996 23.9062C9.5579 23.9062 8.66343 23.727 7.81227 23.4474C7.66265 23.3982 7.50646 23.375 7.34962 23.375C3.27693 23.375 -0.0220385 26.7272 -0.000382265 30.8537C0.00880523 32.5975 1.42565 34 3.14962 34H17.8496C19.5736 34 20.9904 32.5975 20.9996 30.8537C21.0213 26.7272 17.7223 23.375 13.6496 23.375ZM10.4996 21.25C13.9791 21.25 16.7996 18.3959 16.7996 14.875C16.7996 11.3541 13.9791 8.5 10.4996 8.5C7.02018 8.5 4.19962 11.3541 4.19962 14.875C4.19962 18.3959 7.02018 21.25 10.4996 21.25ZM38.8496 0H13.6496C11.9125 0 10.4996 1.47754 10.4996 3.29309V6.375C12.0366 6.375 13.4593 6.82523 14.6996 7.55703V4.25H37.7996V23.375H33.5996V19.125H25.1996V23.375H20.1964C21.4498 24.4833 22.3699 25.9469 22.801 27.625H38.8496C40.5867 27.625 41.9996 26.1475 41.9996 24.3319V3.29309C41.9996 1.47754 40.5867 0 38.8496 0Z" fill="black"/>
</g>
<defs>
<clipPath id="clip0_96_740">
<rect width="42" height="34" fill="white"/>
</clipPath>
</defs>
</svg>
