<svg width="48" height="48" viewBox="0 0 48 48" fill="none" xmlns="http://www.w3.org/2000/svg">
<g clip-path="url(#clip0_121_59)">
<path d="M23.9998 2.19999C23.045 2.19999 22.1294 2.57927 21.4542 3.2544C20.7791 3.92953 20.3998 4.84521 20.3998 5.79999C20.3998 6.75477 20.7791 7.67044 21.4542 8.34557C22.1294 9.0207 23.045 9.39999 23.9998 9.39999C24.9546 9.39999 25.8703 9.0207 26.5454 8.34557C27.2205 7.67044 27.5998 6.75477 27.5998 5.79999C27.5998 4.84521 27.2205 3.92953 26.5454 3.2544C25.8703 2.57927 24.9546 2.19999 23.9998 2.19999ZM17.9998 5.79999C17.9998 4.20869 18.6319 2.68257 19.7572 1.55735C20.8824 0.432129 22.4085 -0.200012 23.9998 -0.200012C25.5911 -0.200012 27.1172 0.432129 28.2424 1.55735C29.3677 2.68257 29.9998 4.20869 29.9998 5.79999C29.9998 7.39129 29.3677 8.91741 28.2424 10.0426C27.1172 11.1678 25.5911 11.8 23.9998 11.8C22.4085 11.8 20.8824 11.1678 19.7572 10.0426C18.6319 8.91741 17.9998 7.39129 17.9998 5.79999ZM37.1998 4.59999C36.5633 4.59999 35.9528 4.85284 35.5028 5.30293C35.0527 5.75302 34.7998 6.36347 34.7998 6.99999C34.7998 7.63651 35.0527 8.24696 35.5028 8.69704C35.9528 9.14713 36.5633 9.39999 37.1998 9.39999C37.8363 9.39999 38.4468 9.14713 38.8969 8.69704C39.347 8.24696 39.5998 7.63651 39.5998 6.99999C39.5998 6.36347 39.347 5.75302 38.8969 5.30293C38.4468 4.85284 37.8363 4.59999 37.1998 4.59999V4.59999ZM32.3998 6.99999C32.3998 5.72695 32.9055 4.50605 33.8057 3.60588C34.7059 2.7057 35.9268 2.19999 37.1998 2.19999C38.4728 2.19999 39.6937 2.7057 40.5939 3.60588C41.4941 4.50605 41.9998 5.72695 41.9998 6.99999C41.9998 8.27303 41.4941 9.49393 40.5939 10.3941C39.6937 11.2943 38.4728 11.8 37.1998 11.8C35.9268 11.8 34.7059 11.2943 33.8057 10.3941C32.9055 9.49393 32.3998 8.27303 32.3998 6.99999ZM8.3998 6.99999C8.3998 6.36347 8.65266 5.75302 9.10275 5.30293C9.55284 4.85284 10.1633 4.59999 10.7998 4.59999C11.4363 4.59999 12.0468 4.85284 12.4969 5.30293C12.9469 5.75302 13.1998 6.36347 13.1998 6.99999C13.1998 7.63651 12.9469 8.24696 12.4969 8.69704C12.0468 9.14713 11.4363 9.39999 10.7998 9.39999C10.1633 9.39999 9.55284 9.14713 9.10275 8.69704C8.65266 8.24696 8.3998 7.63651 8.3998 6.99999ZM10.7998 2.19999C9.52677 2.19999 8.30587 2.7057 7.40569 3.60588C6.50552 4.50605 5.9998 5.72695 5.9998 6.99999C5.9998 8.27303 6.50552 9.49393 7.40569 10.3941C8.30587 11.2943 9.52677 11.8 10.7998 11.8C12.0728 11.8 13.2937 11.2943 14.1939 10.3941C15.0941 9.49393 15.5998 8.27303 15.5998 6.99999C15.5998 5.72695 15.0941 4.50605 14.1939 3.60588C13.2937 2.7057 12.0728 2.19999 10.7998 2.19999ZM12.2398 30.9952C11.59 31.0277 10.9403 30.9278 10.3303 30.7015C9.72023 30.4752 9.16259 30.1272 8.6912 29.6787C8.21981 29.2302 7.84452 28.6906 7.58814 28.0926C7.33176 27.4945 7.19964 26.8506 7.1998 26.2V17.2C7.1998 17.0409 7.26302 16.8882 7.37554 16.7757C7.48806 16.6632 7.64067 16.6 7.7998 16.6H12.0334C12.1294 15.7192 12.4414 14.9008 12.9094 14.2H7.7998C6.1438 14.2 4.7998 15.544 4.7998 17.2V26.2C4.79969 27.2275 5.0195 28.2431 5.44445 29.1786C5.8694 30.1141 6.48965 30.9478 7.26354 31.6237C8.03742 32.2996 8.947 32.802 9.93116 33.0972C10.9153 33.3924 11.9513 33.4736 12.9694 33.3352C12.6464 32.5824 12.4019 31.7982 12.2398 30.9952V30.9952ZM35.0302 33.3352C36.0483 33.4736 37.0843 33.3924 38.0684 33.0972C39.0526 32.802 39.9622 32.2996 40.7361 31.6237C41.51 30.9478 42.1302 30.1141 42.5552 29.1786C42.9801 28.2431 43.1999 27.2275 43.1998 26.2V17.2C43.1998 15.544 41.8558 14.2 40.1998 14.2H35.0902C35.5606 14.9008 35.8702 15.7192 35.9662 16.6H40.1998C40.3589 16.6 40.5115 16.6632 40.6241 16.7757C40.7366 16.8882 40.7998 17.0409 40.7998 17.2V26.2C40.8 26.8506 40.6678 27.4945 40.4115 28.0926C40.1551 28.6906 39.7798 29.2302 39.3084 29.6787C38.837 30.1272 38.2794 30.4752 37.6693 30.7015C37.0593 30.9278 36.4096 31.0277 35.7598 30.9952C35.5977 31.7982 35.3532 32.5823 35.0302 33.3352V33.3352ZM17.3998 14.2C15.7438 14.2 14.3998 15.544 14.3998 17.2V28.6C14.3998 31.1461 15.4112 33.5879 17.2116 35.3882C19.0119 37.1886 21.4537 38.2 23.9998 38.2C26.5459 38.2 28.9877 37.1886 30.788 35.3882C32.5884 33.5879 33.5998 31.1461 33.5998 28.6V17.2C33.5998 15.544 32.2558 14.2 30.5998 14.2H17.3998ZM16.7998 17.2C16.7998 17.0409 16.863 16.8882 16.9755 16.7757C17.0881 16.6632 17.2407 16.6 17.3998 16.6H30.5998C30.7589 16.6 30.9115 16.6632 31.0241 16.7757C31.1366 16.8882 31.1998 17.0409 31.1998 17.2V28.6C31.1998 30.5095 30.4412 32.3409 29.091 33.6912C27.7407 35.0414 25.9094 35.8 23.9998 35.8C22.0902 35.8 20.2589 35.0414 18.9086 33.6912C17.5584 32.3409 16.7998 30.5095 16.7998 28.6V17.2Z" fill="black"/>
</g>
<defs>
<clipPath id="clip0_121_59">
<rect width="48" height="48" fill="white"/>
</clipPath>
</defs>
</svg>
