<svg width="28" height="26" viewBox="0 0 28 26" fill="none" xmlns="http://www.w3.org/2000/svg">
<path d="M17.5 1.21875H0.875V16.6562H10.5V25.1875H27.125V9.75H17.5V1.21875ZM8.11043 4.875L5.36446 12.152H7.21875L7.66533 10.9688H10.5V15.0312H2.625V2.84375H15.75V9.75H12.1041L10.2648 4.875H8.11043ZM10.0965 9.34375H8.27848L9.1875 6.93479L10.0965 9.34375ZM25.375 11.375V23.5625H12.25V11.375H25.375Z" fill="white"/>
<path d="M17.3596 18.7119C17.5269 18.9615 17.7112 19.201 17.9113 19.4289C17.2769 19.7466 16.5565 19.9057 15.75 19.9062V21.5312C17.0702 21.5312 18.2498 21.2058 19.25 20.5753C20.2502 21.2058 21.4298 21.5312 22.75 21.5312V19.9062C21.9452 19.9062 21.2248 19.747 20.5888 19.4286C20.7888 19.2008 20.9731 18.9614 21.1404 18.7119C21.6448 17.9505 22.0157 17.1195 22.2393 16.25H23.1875V14.625H20.125V13.4062H18.375V14.625H15.3125V16.25H16.2607C16.4843 17.1195 16.8552 17.9505 17.3596 18.7119ZM20.4274 16.25C20.2464 16.8124 19.9872 17.3505 19.6563 17.8506C19.5327 18.035 19.397 18.2122 19.25 18.3812C19.1137 18.2247 18.9871 18.0611 18.871 17.8911C18.5267 17.3798 18.2581 16.8278 18.0724 16.25H20.4274Z" fill="white"/>
</svg>
