<?xml version="1.0" encoding="utf-8"?>
<!-- Generator: Adobe Illustrator 26.1.0, SVG Export Plug-In . SVG Version: 6.00 Build 0)  -->
<svg version="1.1" id="Слой_1" xmlns="http://www.w3.org/2000/svg" xmlns:xlink="http://www.w3.org/1999/xlink" x="0px" y="0px"
	 viewBox="0 0 3660 3370" style="enable-background:new 0 0 3660 3370;" xml:space="preserve">
<style type="text/css">
	.st0{fill:none;stroke:#000000;stroke-miterlimit:10;}
</style>
<polygon class="st0" points="1594,2022 1623,2305 1632,2308 1626,2335 1509.01,2335 1509.01,2328.45 1505,2332 1507,2337 1485,2341 
	1479,2337 1466,2338 1466,2340.37 1460,2348 1443,2331 1437,2335 1432,2344 1432,2354.28 1426,2360 1420.66,2360 1413,2354 
	1411.5,2353.5 1410.5,2350.5 1407.5,2349.5 1383.5,2317.5 1367.5,2314.5 1365.5,2307.5 1353.5,2301.5 1353.5,2297.41 1334.5,2296.5 
	1327.5,2302.5 1320.5,2302.5 1318.5,2300.5 1316.5,2302.5 1300.5,2303.5 1298.5,2301.5 1296.5,2301.5 1287.5,2317.5 1301.5,2268.5 
	1305.5,2260.5 1304.5,2249.5 "/>
<polygon class="st0" points="1281.5,2336.5 1287.5,2317.5 1296.5,2301.5 1298.5,2301.5 1300.5,2303.5 1316.5,2302.5 1318.5,2300.5 
	1320.5,2302.5 1327.5,2302.5 1334.5,2296.5 1353.5,2297.41 1353.5,2301.5 1365.5,2307.5 1367.5,2314.5 1335.66,2336.5 "/>
</svg>
